# xmcd
#
# Track frame offsets: 
#        150
#        21686
#        43919
#        62847
#        96644
#        119736
#        133302
#        153371
#        178563
#        200718
#        217489
#        234509
#        256889
#        270894
#        289240
#        305196
#
# Disc length: 4329 seconds
#
# Revision: 3
# Processed by: cddbd v1.5.2PL0 Copyright (c) Steve Scherf et al.
# Submitted via: ExactAudioCopy v0.95b4
#
DISCID=0e10e710
DTITLE=The Eagles - Greatest Hits - CD2
DYEAR=2003
DGENRE=Rock
TTITLE0=Life In The Fast Lane
TTITLE1=Wasted Time
TTITLE2=Victim Of Love
TTITLE3=The Last Resort
TTITLE4=New Kid In Town
TTITLE5=Please Come Home For Christmas
TTITLE6=Heartache Tonight
TTITLE7=The Sad Cafe
TTITLE8=I Cant Tell You Why
TTITLE9=The Long Run
TTITLE10=In The City
TTITLE11=Those Shoes
TTITLE12=Seven Bridges Road (Live)
TTITLE13=Love Will Keep Us Alive
TTITLE14=Get Over It
TTITLE15=Hole In The World
EXTD=
EXTT0=
EXTT1=
EXTT2=
EXTT3=
EXTT4=
EXTT5=
EXTT6=
EXTT7=
EXTT8=
EXTT9=
EXTT10=
EXTT11=
EXTT12=
EXTT13=
EXTT14=
EXTT15=
PLAYORDER=
